ply
format ascii 1.0
comment cube with quad faces and scalar face properties
element vertex 8
property float x
property float y
property float z
property uchar red
property uchar green
property uchar blue
element face 6
property list uchar int vertex_indices
property uchar material
end_header
-1 -1 -1 255 255 255
-1 -1 1 255 255 255
-1 1 1 255 255 255
-1 1 -1 255 255 255
1 -1 -1 255 255 255
1 -1 1 255 255 255
1 1 1 255 255 255
1 1 -1 255 255 255
4 0 1 2 3 0
4 0 4 5 1 1
4 1 5 6 2 2
4 2 6 7 3 3
4 3 7 4 0 4
4 4 7 6 5 5
